<?xml version="1.0" standalone="no"?>
<!DOCTYPE svg PUBLIC "-//W3C//DTD SVG 20010904//EN"
 "http://www.w3.org/TR/2001/REC-SVG-20010904/DTD/svg10.dtd">
<svg version="1.0" xmlns="http://www.w3.org/2000/svg"
 width="153.000000pt" height="153.000000pt" viewBox="0 0 153.000000 153.000000"
 preserveAspectRatio="xMidYMid meet">
<metadata>
Created by potrace 1.14, written by Peter Selinger 2001-2017
</metadata>
<g transform="translate(0.000000,153.000000) scale(0.100000,-0.100000)"
fill="#000000" stroke="none">
<path d="M655 1521 c-345 -56 -601 -316 -646 -660 -35 -259 95 -549 312 -698
139 -95 273 -137 444 -137 171 0 305 42 444 137 217 149 347 439 312 698 -41
310 -254 556 -553 639 -82 23 -237 33 -313 21z m290 -51 c73 -19 185 -63 185
-74 0 -2 -24 2 -52 10 -121 32 -277 7 -420 -67 -168 -88 -328 -280 -438 -526
-102 -230 -140 -304 -149 -299 -21 14 -45 153 -45 261 1 168 30 257 124 385
88 119 218 229 326 275 135 57 325 72 469 35z m207 -142 c80 -38 180 -123 230
-196 l31 -45 -54 -111 c-29 -61 -56 -114 -59 -119 -4 -4 -33 36 -66 89 -133
216 -271 304 -473 304 -49 0 -110 -7 -136 -15 -27 -8 -51 -13 -53 -11 -6 7 86
66 141 91 94 43 154 55 263 52 92 -3 109 -7 176 -39z m-233 -249 c25 -11 54
-27 65 -37 27 -24 56 -91 56 -130 l0 -33 -72 3 c-71 3 -72 3 -80 35 -13 49
-51 73 -115 73 -87 0 -135 -37 -118 -90 9 -29 54 -49 182 -81 171 -42 213 -77
213 -176 -1 -109 -86 -179 -232 -190 -102 -8 -197 11 -249 49 -43 31 -78 94
-79 141 l0 27 73 0 73 0 9 -32 c15 -49 56 -73 125 -73 69 0 113 26 118 68 5
37 -26 53 -163 87 -150 37 -203 74 -220 157 -20 98 63 197 188 223 61 13 173
3 226 -21z m557 -131 c24 -95 24 -267 0 -358 -35 -131 -80 -206 -190 -316 -87
-87 -114 -107 -196 -148 -52 -25 -126 -53 -165 -61 -154 -32 -347 -10 -475 55
-33 17 -60 32 -60 34 0 2 21 -2 47 -10 27 -8 84 -15 128 -15 310 -2 566 207
745 609 107 238 133 291 140 287 4 -3 16 -37 26 -77z m-1185 -340 c63 -107
161 -212 239 -256 108 -62 275 -78 389 -37 24 8 46 14 48 12 5 -6 -77 -62
-127 -87 -76 -38 -152 -61 -230 -67 -151 -11 -270 36 -390 156 -112 113 -112
113 -44 254 30 64 57 117 58 117 2 0 27 -41 57 -92z"/>
</g>
</svg>
